Coordinates
version=1
nRows=20
nColumns=34
inDegrees=yes

Units are S.I. units (second, meters, Newtons, ...)
If the header above contains a line with 'inDegrees', this indicates whether rotational values are in degrees (yes) or radians (no).

endheader
time	pelvis_tilt	pelvis_list	pelvis_rotation	pelvis_tx	pelvis_ty	pelvis_tz	hip_flexion_r	hip_adduction_r	hip_rotation_r	knee_angle_r	ankle_angle_r	subtalar_angle_r	mtp_angle_r	hip_flexion_l	hip_adduction_l	hip_rotation_l	knee_angle_l	ankle_angle_l	subtalar_angle_l	mtp_angle_l	lumbar_extension	lumbar_bending	lumbar_rotation	arm_flex_r	arm_add_r	arm_rot_r	elbow_flex_r	pro_sup_r	arm_flex_l	arm_add_l	arm_rot_l	elbow_flex_l	pro_sup_l
      7.41666670	      0.32539045	     -1.17183214	   -186.30748909	      0.19564791	      1.01657441	      0.15262895	      0.76952399	      2.55562716	      2.44365666	     38.42768667	     11.46086112	     -7.70650583	      0.00000000	     51.58146323	     -2.64587075	     -3.37927205	    113.44451079	     -2.30766650	    -17.80415597	      0.00000000	    -21.55152759	      1.79449161	     12.63479322	     14.80175955	    -27.45590910	     11.58312738	    110.74317981	     98.97827004	    -32.50631280	    -29.05181449	      0.59421837	     84.61504718	     85.43253006
      7.42500000	      0.56055608	     -1.53026428	   -186.55648006	      0.19273928	      1.02297774	      0.15303462	     -3.05111071	      1.24749242	      2.03136900	     35.20890068	      8.03928328	     -5.73248232	      0.00000000	     52.47409811	     -2.40272526	     -4.40259120	    108.27261025	     -5.76482074	    -21.27125803	      0.00000000	    -20.71976556	      1.37729836	     13.45532410	     15.82338499	    -26.95618866	     11.25134956	    112.39368965	     99.07351929	    -35.64042889	    -28.13991881	     -2.36026200	     86.50401816	     85.64140634
      7.43333330	      0.80103015	     -1.91356130	   -186.45846982	      0.18829309	      1.02995281	      0.15363590	     -7.15905398	     -0.22761344	      0.86754377	     31.43125291	      3.34711089	     -3.22645873	      0.00000000	     53.81955775	     -1.94412559	     -5.29130318	    102.22202025	     -5.48640696	    -21.40304309	      0.00000000	    -19.55550460	      1.27132851	     14.21335297	     16.50531001	    -26.42396527	     10.87894714	    113.76657606	     99.15462976	    -38.06653173	    -27.82183649	     -3.75206081	     87.53262475	     85.79595190
      7.44166670	      1.06535676	     -2.09770452	   -186.38745543	      0.18330776	      1.03612562	      0.15337317	    -10.77273121	     -1.30392597	     -0.28081435	     28.40392127	     -1.68258358	     -1.37875220	      0.00000000	     54.55712576	     -1.81984732	     -6.24317311	     95.75694783	     -6.01504991	    -21.66896645	      0.00000000	    -18.44888344	      1.21906564	     15.08476199	     16.72453992	    -25.94050899	     10.27543768	    115.07225288	     99.26048790	    -40.41871551	    -27.35354295	     -5.44650494	     88.41193928	     85.90124469
      7.45000000	      1.28278418	     -2.15822144	   -186.03172972	      0.17795999	      1.04337246	      0.15244116	    -14.18604383	     -2.04191973	     -1.42027199	     25.62732653	     -7.07173451	      0.13783204	      0.00000000	     54.51623052	     -1.76027596	     -7.00542944	     88.74011829	     -7.37296741	    -21.47657742	      0.00000000	    -17.30208431	      1.20528913	     15.68312778	     16.48855829	    -25.17198717	      9.49642568	    116.01526972	     99.41680270	    -42.61439426	    -26.90857840	     -7.24824943	     89.39460676	     86.02501712
      7.45833330	      1.50229889	     -2.02141100	   -185.51825676	      0.17298399	      1.05071192	      0.15121109	    -17.14757624	     -2.30286493	     -2.22180730	     23.48901510	    -11.80580101	      0.85685403	      0.00000000	     53.97590006	     -1.92595941	     -7.50035172	     81.48685758	     -9.21709553	    -20.69353480	      0.00000000	    -16.28828064	      1.36769914	     16.17437145	     15.88236297	    -24.48920643	      8.70810466	    117.00782251	     99.60407305	    -44.45452732	    -26.54803160	     -8.99412804	     89.94559141	     86.12704999
      7.46666670	      1.58565719	     -1.60401642	   -184.77726528	      0.16919860	      1.05756359	      0.15030671	    -19.70012612	     -2.03256884	     -2.48330159	     22.41685914	    -15.31657921	      0.70880521	      0.00000000	     52.93048317	     -2.13749015	     -7.68043435	     73.96163941	    -11.04730105	    -19.34817333	      0.00000000	    -15.48485934	      1.78263870	     16.58927194	     14.98913205	    -24.01344051	      7.92433594	    117.16455566	     99.75503396	    -45.68717458	    -26.36877351	    -10.44981094	     90.24132954	     86.18387097
      7.47500000	      1.31465199	     -0.97227264	   -183.97727742	      0.16633994	      1.06453498	      0.14955263	    -22.05222500	     -1.33255681	     -1.87552524	     22.45110887	    -17.50238986	     -0.88485299	      0.00000000	     51.18598974	     -2.40171578	     -7.74751905	     66.14909540	    -12.44082215	    -17.42605311	      0.00000000	    -15.20734607	      2.40365094	     16.74090381	     13.63231481	    -23.75076228	      7.20935599	    118.86224517	     99.93475416	    -46.73496521	    -26.01610484	    -11.91574714	     90.62391548	     86.20760797
      7.48333330	      1.05136116	     -0.25858795	   -183.07519610	      0.16445941	      1.07053167	      0.14929908	    -23.79912506	     -0.41967260	     -0.95054166	     23.71404105	    -18.21628978	     -2.80314776	      0.00000000	     49.42421988	     -2.58185774	     -7.76450331	     58.25356020	    -13.62221099	    -15.02575923	      0.00000000	    -14.99385183	      3.17804954	     17.38510519	     12.84660751	    -23.69914577	      6.25564990	    117.17571653	    100.01092163	    -46.54690918	    -26.11431165	    -13.13222640	     90.62187434	     86.19052888
      7.49166670	      0.61782475	      0.62170106	   -182.31312693	      0.16340864	      1.07548644	      0.14872637	    -25.19906949	      0.85871018	      1.04902562	     26.05160823	    -18.35220500	     -5.97146489	      0.00000000	     47.44211506	     -2.99214350	     -8.01558459	     50.36955761	    -14.65979761	    -12.00863001	      0.00000000	    -15.20202329	      3.92664160	     17.91940439	     12.54422189	    -23.41592883	      4.95586729	    114.56942293	    100.10959772	    -46.33224246	    -26.14021524	    -14.06208636	     90.67419704	     86.20585457
      7.50000000	      0.19781511	      1.68157396	   -181.51577367	      0.16235263	      1.07915901	      0.14868686	    -26.19076362	      2.40319763	      2.90888862	     29.27590666	    -18.23843506	     -9.81020996	      0.00000000	     45.33530416	     -3.49021530	     -8.53510076	     42.51579642	    -15.80733472	     -8.53947870	      0.00000000	    -15.18447702	      5.05696768	     17.81681847	     11.45350009	    -23.55868244	      4.76977361	    114.71530798	    100.26923688	    -46.42560398	    -25.91058101	    -14.97756286	     90.94172138	     86.19815161
      7.50833330	     -0.24796145	      2.87680123	   -180.94674135	      0.16153606	      1.08138323	      0.14891781	    -26.82996850	      4.02332532	      4.67458666	     33.21939604	    -17.87242249	    -13.47637965	      0.00000000	     43.06736144	     -4.14353236	     -9.27259852	     34.88336026	    -17.04454661	     -4.67175091	      0.00000000	    -15.34572512	      6.24190296	     17.99568992	     10.47328964	    -23.99604187	      4.45813546	    114.84826969	    100.36704224	    -46.00478063	    -25.51168536	    -15.96047515	     91.29201690	     86.16565487
      7.51666670	     -0.77785932	      4.22621179	   -180.63120719	      0.16062933	      1.08198152	      0.14920218	    -27.19087366	      5.61013234	      6.13360902	     37.87630869	    -17.63562828	    -17.20730682	      0.00000000	     40.77124803	     -5.02753747	    -10.14726916	     27.95512736	    -18.11345095	     -0.47414511	      0.00000000	    -15.66817374	      7.46710396	     18.40576051	      9.52733731	    -24.60486540	      4.11605517	    114.94857389	    100.39795073	    -45.46875964	    -25.05166205	    -16.82095106	     91.78987767	     86.13985068
      7.52500000	     -1.34683310	      5.58359590	   -180.45815922	      0.15946236	      1.08099997	      0.14922577	    -27.18391456	      7.11341173	      7.17681739	     43.33578407	    -17.43054622	    -20.80796468	      0.00000000	     38.68549459	     -5.97958556	    -10.91804936	     22.25188986	    -19.00217068	      3.62217007	      0.00000000	    -16.15207376	      8.54862368	     18.89041937	      8.51269937	    -25.24807494	      3.80735588	    115.10270784	    100.35039744	    -44.76950696	    -24.53880712	    -17.58279544	     92.28322387	     86.12419285
      7.53333330	     -1.81409043	      6.77597618	   -180.48593331	      0.15858315	      1.07950770	      0.14958654	    -26.66499201	      8.28050249	      7.81862602	     49.36407971	    -17.29846503	    -23.95156196	      0.00000000	     36.94554402	     -6.83783602	    -11.37824352	     17.86915052	    -19.73754548	      7.02038152	      0.00000000	    -16.68945468	      9.34826585	     19.58724728	      8.02878619	    -25.75478595	      3.24449228	    113.98238570	    100.21114805	    -43.59955487	    -24.04538406	    -18.08393275	     92.69811541	     86.14708102
      7.54166670	     -2.17067409	      7.75093011	   -180.59129054	      0.15788434	      1.07736730	      0.14976419	    -25.59819646	      9.17496167	      8.03899963	     55.95706774	    -17.28763525	    -26.77072243	      0.00000000	     35.50282819	     -7.55485084	    -11.48853320	     14.65245679	    -20.21634460	      9.68938321	      0.00000000	    -17.18961015	      9.89163554	     20.07328526	      7.40752406	    -26.16756780	      3.07796591	    113.02682049	    100.01794805	    -42.25733204	    -23.56318585	    -18.33557359	     92.94703456	     86.19446356
      7.55000000	     -2.44130337	      8.48801324	   -180.74207382	      0.15852104	      1.07451784	      0.15024923	    -23.99597062	      9.73631785	      7.87676562	     63.04391801	    -16.97333125	    -29.06432468	      0.00000000	     34.34299218	     -8.06723438	    -11.14334232	     12.56418956	    -20.59407703	     11.32802374	      0.00000000	    -17.78262286	     10.21557823	     20.35363160	      6.73080511	    -26.45787999	      3.32486831	    112.30410538	     99.83770244	    -40.59793385	    -22.95358273	    -18.32530143	     93.09281672	     86.23497816
      7.55833330	     -2.57040200	      8.95897778	   -181.00159261	      0.15962568	      1.07109663	      0.15024593	    -21.88197614	     10.03068045	      7.62495010	     70.45417248	    -16.81885200	    -31.01416009	      0.00000000	     33.30818016	     -8.41891877	    -10.69172218	     11.28281742	    -20.63499708	     12.38117679	      0.00000000	    -18.30619237	     10.14597786	     20.41891902	      5.81188241	    -26.64287140	      3.92816256	    111.63774065	     99.59262129	    -38.57271741	    -22.45201129	    -18.02114971	     92.92389912	     86.28910821
      7.56666670	     -2.44932189	      9.29816210	   -181.17271376	      0.16194536	      1.06663959	      0.15029728	    -19.18913688	     10.14777532	      7.05947384	     78.03077419	    -16.59149386	    -32.72481770	      0.00000000	     32.70870329	     -8.60185907	     -9.89986096	     10.94584823	    -20.34709164	     12.86243120	      0.00000000	    -18.54995167	     10.17188957	     20.36440213	      4.46175593	    -26.70782037	      4.60310395	    111.28659796	     98.81414229	    -35.84817252	    -22.40827360	    -16.65274038	     91.88129565	     86.41595569
      7.57500000	     -2.44495994	      9.32003098	   -181.35674999	      0.16488922	      1.06271060	      0.15008401	    -16.42737224	      9.84922918	      6.38510282	     85.38150523	    -16.17102956	    -33.49857413	      0.00000000	     31.96105060	     -8.50401143	     -8.92431109	     11.32735103	    -19.78673999	     12.35869911	      0.00000000	    -19.04898777	      9.63601001	     20.24273621	      2.61294747	    -26.63762997	      5.36106737	    110.70158719	     97.80913884	    -32.69975890	    -22.52932685	    -15.11844088	     91.03357128	     86.38704153
